HIERARCHY
ROOT Hips
{
  OFFSET -0.142555 90.2713 1.76272
  CHANNELS 6 Xposition Yposition Zposition Zrotation Xrotation Yrotation
  JOINT Spine
  {
    OFFSET 0 9.9235 -1.2273
    CHANNELS 6 Xposition Yposition Zposition Zrotation Xrotation Yrotation
    JOINT Spine1
    {
      OFFSET -0.0001 11.6454 -1.4223
      CHANNELS 6 Xposition Yposition Zposition Zrotation Xrotation Yrotation
      JOINT Spine2
      {
        OFFSET 0.0001 13.3602 -1.6265
        CHANNELS 6 Xposition Yposition Zposition Zrotation Xrotation Yrotation
        JOINT Neck
        {
          OFFSET 0 15.0325 0.7929
          CHANNELS 6 Xposition Yposition Zposition Zrotation Xrotation Yrotation
          JOINT Head
          {
            OFFSET 0 10.3218 3.1424
            CHANNELS 6 Xposition Yposition Zposition Zrotation Xrotation Yrotation
            JOINT HeadTop_End
            {
              OFFSET 0.0002 18.4747 6.6364
              CHANNELS 6 Xposition Yposition Zposition Zrotation Xrotation Yrotation
              End Site
              {
                OFFSET 0 0 0
              }
            }
            JOINT LeftEye
            {
              OFFSET 2.9479 7.6817 9.1207
              CHANNELS 6 Xposition Yposition Zposition Zrotation Xrotation Yrotation
              End Site
              {
                OFFSET 0 0 0
              }
            }
            JOINT RightEye
            {
              OFFSET -2.9445 7.6817 9.1205
              CHANNELS 6 Xposition Yposition Zposition Zrotation Xrotation Yrotation
              End Site
              {
                OFFSET 0 0 0
              }
            }
          }
        }
        JOINT LeftShoulder
        {
          OFFSET 6.1058 9.1104 0.7056
          CHANNELS 6 Xposition Yposition Zposition Zrotation Xrotation Yrotation
          JOINT LeftArm
          {
            OFFSET 12.655 -0.2659 -2.6009
            CHANNELS 6 Xposition Yposition Zposition Zrotation Xrotation Yrotation
            JOINT LeftForeArm
            {
              OFFSET 27.4047 0 0
              CHANNELS 6 Xposition Yposition Zposition Zrotation Xrotation Yrotation
              JOINT LeftHand
              {
                OFFSET 27.6145 0 0
                CHANNELS 6 Xposition Yposition Zposition Zrotation Xrotation Yrotation
                JOINT LeftHandMiddle1
                {
                  OFFSET 12.7755 0 0
                  CHANNELS 6 Xposition Yposition Zposition Zrotation Xrotation Yrotation
                  JOINT LeftHandMiddle2
                  {
                    OFFSET 3.614 0 0
                    CHANNELS 6 Xposition Yposition Zposition Zrotation Xrotation Yrotation
                    JOINT LeftHandMiddle3
                    {
                      OFFSET 3.4598 0 0
                      CHANNELS 6 Xposition Yposition Zposition Zrotation Xrotation Yrotation
                      End Site
                      {
                        OFFSET 3.6802 0 0
                      }
                    }
                  }
                }
                JOINT LeftHandThumb1
                {
                  OFFSET 3.7888 -2.167 3.0031
                  CHANNELS 6 Xposition Yposition Zposition Zrotation Xrotation Yrotation
                  JOINT LeftHandThumb2
                  {
                    OFFSET 3.6754 -2.122 2.122
                    CHANNELS 6 Xposition Yposition Zposition Zrotation Xrotation Yrotation
                    JOINT LeftHandThumb3
                    {
                      OFFSET 3.3944 -1.9597 1.9598
                      CHANNELS 6 Xposition Yposition Zposition Zrotation Xrotation Yrotation
                      End Site
                      {
                        OFFSET 2.6794 -1.5469 1.5469
                      }
                    }
                  }
                }
                JOINT LeftHandIndex1
                {
                  OFFSET 12.2666 -0.2317 2.8221
                  CHANNELS 6 Xposition Yposition Zposition Zrotation Xrotation Yrotation
                  JOINT LeftHandIndex2
                  {
                    OFFSET 3.892 0 0
                    CHANNELS 6 Xposition Yposition Zposition Zrotation Xrotation Yrotation
                    JOINT LeftHandIndex3
                    {
                      OFFSET 3.4152 0 0
                      CHANNELS 6 Xposition Yposition Zposition Zrotation Xrotation Yrotation
                      End Site
                      {
                        OFFSET 3.078 0 0
                      }
                    }
                  }
                }
                JOINT LeftHandRing1
                {
                  OFFSET 12.147 0.0099 -2.2166
                  CHANNELS 6 Xposition Yposition Zposition Zrotation Xrotation Yrotation
                  JOINT LeftHandRing2
                  {
                    OFFSET 3.6012 0 0
                    CHANNELS 6 Xposition Yposition Zposition Zrotation Xrotation Yrotation
                    JOINT LeftHandRing3
                    {
                      OFFSET 3.3073 0 0
                      CHANNELS 6 Xposition Yposition Zposition Zrotation Xrotation Yrotation
                      End Site
                      {
                        OFFSET 3.6601 0 0
                      }
                    }
                  }
                }
                JOINT LeftHandPinky1
                {
                  OFFSET 10.9082 -0.2264 -4.7258
                  CHANNELS 6 Xposition Yposition Zposition Zrotation Xrotation Yrotation
                  JOINT LeftHandPinky2
                  {
                    OFFSET 4.1367 0 0
                    CHANNELS 6 Xposition Yposition Zposition Zrotation Xrotation Yrotation
                    JOINT LeftHandPinky3
                    {
                      OFFSET 2.5948 0 0
                      CHANNELS 6 Xposition Yposition Zposition Zrotation Xrotation Yrotation
                      End Site
                      {
                        OFFSET 2.9239 0 0
                      }
                    }
                  }
                }
              }
            }
          }
        }
        JOINT RightShoulder
        {
          OFFSET -6.1057 9.1105 0.7056
          CHANNELS 6 Xposition Yposition Zposition Zrotation Xrotation Yrotation
          JOINT RightArm
          {
            OFFSET -12.655 -0.266 -2.6009
            CHANNELS 6 Xposition Yposition Zposition Zrotation Xrotation Yrotation
            JOINT RightForeArm
            {
              OFFSET -27.4047 0 0
              CHANNELS 6 Xposition Yposition Zposition Zrotation Xrotation Yrotation
              JOINT RightHand
              {
                OFFSET -27.6145 0 0
                CHANNELS 6 Xposition Yposition Zposition Zrotation Xrotation Yrotation
                JOINT RightHandMiddle1
                {
                  OFFSET -12.7755 0 0
                  CHANNELS 6 Xposition Yposition Zposition Zrotation Xrotation Yrotation
                  JOINT RightHandMiddle2
                  {
                    OFFSET -3.614 0 0
                    CHANNELS 6 Xposition Yposition Zposition Zrotation Xrotation Yrotation
                    JOINT RightHandMiddle3
                    {
                      OFFSET -3.4598 0 0
                      CHANNELS 6 Xposition Yposition Zposition Zrotation Xrotation Yrotation
                      End Site
                      {
                        OFFSET -3.6802 0 0
                      }
                    }
                  }
                }
                JOINT RightHandThumb1
                {
                  OFFSET -3.7888 -2.167 3.0031
                  CHANNELS 6 Xposition Yposition Zposition Zrotation Xrotation Yrotation
                  JOINT RightHandThumb2
                  {
                    OFFSET -3.6754 -2.122 2.122
                    CHANNELS 6 Xposition Yposition Zposition Zrotation Xrotation Yrotation
                    JOINT RightHandThumb3
                    {
                      OFFSET -3.3944 -1.9597 1.9598
                      CHANNELS 6 Xposition Yposition Zposition Zrotation Xrotation Yrotation
                      End Site
                      {
                        OFFSET -2.6794 -1.5469 1.5469
                      }
                    }
                  }
                }
                JOINT RightHandIndex1
                {
                  OFFSET -12.2666 -0.2317 2.8221
                  CHANNELS 6 Xposition Yposition Zposition Zrotation Xrotation Yrotation
                  JOINT RightHandIndex2
                  {
                    OFFSET -3.892 0 0
                    CHANNELS 6 Xposition Yposition Zposition Zrotation Xrotation Yrotation
                    JOINT RightHandIndex3
                    {
                      OFFSET -3.4152 0 0
                      CHANNELS 6 Xposition Yposition Zposition Zrotation Xrotation Yrotation
                      End Site
                      {
                        OFFSET -3.078 0 0
                      }
                    }
                  }
                }
                JOINT RightHandRing1
                {
                  OFFSET -12.147 0.0099 -2.2166
                  CHANNELS 6 Xposition Yposition Zposition Zrotation Xrotation Yrotation
                  JOINT RightHandRing2
                  {
                    OFFSET -3.6012 0 0
                    CHANNELS 6 Xposition Yposition Zposition Zrotation Xrotation Yrotation
                    JOINT RightHandRing3
                    {
                      OFFSET -3.3073 0 0
                      CHANNELS 6 Xposition Yposition Zposition Zrotation Xrotation Yrotation
                      End Site
                      {
                        OFFSET -3.6601 0 0
                      }
                    }
                  }
                }
                JOINT RightHandPinky1
                {
                  OFFSET -10.9082 -0.2264 -4.7258
                  CHANNELS 6 Xposition Yposition Zposition Zrotation Xrotation Yrotation
                  JOINT RightHandPinky2
                  {
                    OFFSET -4.1367 0 0
                    CHANNELS 6 Xposition Yposition Zposition Zrotation Xrotation Yrotation
                    JOINT RightHandPinky3
                    {
                      OFFSET -2.5948 0 0
                      CHANNELS 6 Xposition Yposition Zposition Zrotation Xrotation Yrotation
                      End Site
                      {
                        OFFSET -2.9239 0 0
                      }
                    }
                  }
                }
              }
            }
          }
        }
      }
    }
  }
  JOINT RightUpLeg
  {
    OFFSET -9.1245 -6.6564 -0.0554
    CHANNELS 6 Xposition Yposition Zposition Zrotation Xrotation Yrotation
    JOINT RightLeg
    {
      OFFSET -0.2447 -40.5954 -0.5145
      CHANNELS 6 Xposition Yposition Zposition Zrotation Xrotation Yrotation
      JOINT RightFoot
      {
        OFFSET 0.2447 -42.0479 -2.0602
        CHANNELS 6 Xposition Yposition Zposition Zrotation Xrotation Yrotation
        JOINT RightToeBase
        {
          OFFSET -0.3734 -10.4922 12.6407
          CHANNELS 6 Xposition Yposition Zposition Zrotation Xrotation Yrotation
          End Site
          {
            OFFSET 0 0 9.9925
          }
        }
      }
    }
  }
  JOINT LeftUpLeg
  {
    OFFSET 9.1245 -6.6564 -0.0554
    CHANNELS 6 Xposition Yposition Zposition Zrotation Xrotation Yrotation
    JOINT LeftLeg
    {
      OFFSET 0.2447 -40.5954 -0.517
      CHANNELS 6 Xposition Yposition Zposition Zrotation Xrotation Yrotation
      JOINT LeftFoot
      {
        OFFSET -0.2447 -42.048 -2.0576
        CHANNELS 6 Xposition Yposition Zposition Zrotation Xrotation Yrotation
        JOINT LeftToeBase
        {
          OFFSET 0.3734 -10.4922 12.6407
          CHANNELS 6 Xposition Yposition Zposition Zrotation Xrotation Yrotation
          End Site
          {
            OFFSET 0 0 9.9925
          }
        }
      }
    }
  }
}
MOTION
Frames:	4
Frame Time:	0.0166667
-3.54141 91.1819 84.3968 -0.885368 18.5022 -2.68987 0 9.9235 -1.2273 -4.5259 8.9913 7.73193 -0.0001 11.6454 -1.4223 -3.17885 6.58543 4.53787 0.0001 13.3602 -1.6265 -3.39923 6.5746 4.44904 0 15.0325 0.7929 1.29073 -6.90113 -1.54285 0 10.3218 3.1424 5.74624 -8.38748 -6.86369 0.0002 18.4747 6.6364 -3.97569e-016 -6.36111e-015 -1.59028e-015 2.9479 7.6817 9.1207 -3.97569e-016 -6.36111e-015 -1.59028e-015 -2.9445 7.6817 9.1205 -3.97569e-016 -6.36111e-015 -1.59028e-015 6.1058 9.1104 0.7056 15.1359 -0.694853 -6.11792 12.655 -0.2659 -2.6009 -57.8557 4.18605 30.4902 27.4047 1.42109e-014 -2.84217e-014 -1.13813e-006 -1.1682e-005 -65.6366 27.6145 1.42109e-014 -1.42109e-014 21.9596 15.2563 -0.226807 12.7755 0 0 0.0643023 0.0785943 -1.32134 3.614 0 -7.10543e-015 -21.0049 -0.390072 2.10402 3.4598 1.42109e-014 7.10543e-015 -23.543 -0.4887 2.34475 3.7888 -2.167 3.0031 -4.07183 -5.95025 2.66566 3.6754 -2.122 2.122 1.96819 7.82283 20.5869 3.3944 -1.9597 1.9598 17.0246 1.7621 21.0561 12.2666 -0.2317 2.8221 -1.32903 15.1501 -9.37845 3.892 0 0 -19.6804 -0.342897 1.97673 3.4152 0 7.10543e-015 -21.1473 -0.395342 2.11764 12.147 0.0099 -2.2166 -14.5592 -0.687867 9.88023 3.6012 0 7.10543e-015 -21.0847 -0.393031 2.11165 3.3073 1.42109e-014 7.10543e-015 -26.2298 -0.604592 2.5946 10.9082 -0.2264 -4.7258 -37.6961 -8.4271 21.5899 4.1367 0 -7.10543e-015 -26.234 -0.604778 2.59497 2.5948 7.10543e-015 -7.10543e-015 -29.0171 -0.737092 2.84781 -6.1057 9.1105 0.7056 -24.5063 -1.31786 8.10758 -12.655 -0.266 -2.6009 34.7016 -26.0176 8.28211 -27.4047 0 -7.10543e-015 -9.9402e-006 3.59989e-006 72.0438 -27.6145 0 0 -12.0892 2.77384 -0.257681 -12.7755 0 0 25.7238 -1.41158 -4.10424 -3.614 0 0 40.7285 -1.13044 -3.04489 -3.4598 0 7.10543e-015 2.0573 -0.00300864 -0.167491 -3.7888 -2.167 3.0031 -2.98415 -6.16645 7.77409 -3.6754 -2.122 2.122 -2.91234 10.4887 -33.1802 -3.3944 -1.9597 1.9598 -16.7851 11.2706 -39.0113 -12.2666 -0.2317 2.8221 34.5483 0.962951 0.319247 -3.892 0 0 42.2325 -1.21164 -3.13673 -3.4152 0 0 3.15566 -0.00707745 -0.25678 -12.147 0.0099 -2.2166 27.7366 -1.55248 -6.99757 -3.6012 0 7.10543e-015 39.6623 -1.07433 -2.97846 -3.3073 0 0 1.61561 -0.00185106 -0.131515 -10.9082 -0.2264 -4.7258 31.6044 -7.03529 -13.5542 -4.1367 -2.84217e-014 1.42109e-014 39.1912 -1.04997 -2.9488 -2.5948 0 0 39.5892 -1.07057 -2.97389 -9.1245 -6.6564 -0.0554 -9.50969 -2.26323 -12.8414 -0.2447 -40.5954 -0.5145 0.73074 22.6371 -10.418 0.2447 -42.0479 -2.0602 19.1858 -8.08214 -5.62149 -0.3734 -10.4922 12.6407 4.91496 -21.1885 1.6587 9.1245 -6.6564 -0.0554 -0.778794 -55.9075 12.8919 0.2447 -40.5954 -0.517 5.37189 8.11019 -7.02108 -0.2447 -42.048 -2.0576 -11.6429 -13.3907 5.28236 0.3734 -10.4922 12.6407 -3.86746e-006 7.6657 -3.33676e-006 
-3.81285 89.5764 88.7565 -0.443698 19.123 -4.0212 8.88178e-016 9.9235 -1.2273 -5.41838 9.18684 8.42156 -0.0001 11.6454 -1.4223 -3.63764 6.59089 4.78243 0.0001 13.3602 -1.6265 -3.81543 6.58528 4.68237 7.10543e-015 15.0325 0.7929 1.12707 -7.39188 -1.60229 0 10.3218 3.1424 6.20972 -10.0869 -7.068 0.0002 18.4747 6.6364 7.95139e-016 0 -0 2.9479 7.6817 9.1207 7.95139e-016 0 -0 -2.9445 7.6817 9.1205 7.95139e-016 0 -0 6.1058 9.1104 0.7056 16.2594 -0.633419 -5.52535 12.655 -0.2659 -2.6009 -59.527 2.57754 31.1611 27.4047 1.42109e-014 1.42109e-014 2.47687e-005 1.06052e-005 -68.7482 27.6145 1.42109e-014 0 25.9999 9.46509 -6.7251 12.7755 0 7.10543e-015 0.346173 0.090113 -1.35107 3.614 0 -7.10543e-015 -19.69 -0.343236 1.97767 3.4598 0 0 -21.6673 -0.414807 2.16725 3.7888 -2.167 3.0031 -4.07183 -5.95025 2.66566 3.6754 -2.122 2.122 1.96819 7.82283 20.5869 3.3944 -1.9597 1.9598 17.0246 1.7621 21.0561 12.2666 -0.2317 2.8221 -2.25972 15.1091 -9.24799 3.892 0 0 -19.2938 -0.329691 1.9394 3.4152 0 0 -19.8355 -0.348287 1.99167 12.147 0.0099 -2.2166 -13.6728 -0.629501 9.84244 3.6012 2.84217e-014 -1.42109e-014 -19.7685 -0.345953 1.98525 3.3073 -1.42109e-014 -7.10543e-015 -24.0126 -0.50809 2.38882 10.9082 -0.2264 -4.7258 -36.4881 -8.00255 21.6867 4.1367 0 0 -24.0154 -0.508206 2.38907 2.5948 7.10543e-015 7.10543e-015 -26.6038 -0.621651 2.62893 -6.1057 9.1105 0.7056 -24.0109 -1.44731 7.54454 -12.655 -0.266 -2.6009 37.8784 -26.8629 15.6876 -27.4047 2.84217e-014 0 2.7395e-006 2.26958e-006 69.1854 -27.6145 2.84217e-014 0 -12.3885 3.97788 4.81825 -12.7755 0 7.10543e-015 26.8003 -1.48937 -4.16483 -3.614 0 7.10543e-015 42.5265 -1.22779 -3.15443 -3.4598 2.84217e-014 0 3.31554 -0.00780368 -0.269758 -3.7888 -2.167 3.0031 -2.46084 -5.51057 7.81659 -3.6754 -2.122 2.122 -2.91234 10.4887 -33.1802 -3.3944 -1.9597 1.9598 -16.7851 11.2706 -39.0113 -12.2666 -0.2317 2.8221 35.7553 0.968423 0.200658 -3.892 -2.84217e-014 0 44.4079 -1.33331 -3.26579 -3.4152 0 0 4.95591 -0.0174428 -0.402961 -12.147 0.0099 -2.2166 28.628 -1.61863 -7.02452 -3.6012 -5.68434e-014 0 40.9196 -1.14063 -3.05668 -3.3073 0 0 2.10564 -0.00313665 -0.171355 -10.9082 -0.2264 -4.7258 32.215 -7.18122 -13.5294 -4.1367 0 -7.10543e-015 39.6807 -1.07533 -2.97965 -2.5948 0 7.10543e-015 39.1912 -1.04997 -2.94879 -9.1245 -6.6564 -0.0554 -10.176 0.134275 -12.9463 -0.2447 -40.5954 -0.5145 0.691103 21.9569 -10.9708 0.2447 -42.0479 -2.0602 19.7224 -7.55103 -4.47845 -0.3734 -10.4922 12.6407 5.59717 -24.206 2.14945 9.1245 -6.6564 -0.0554 1.14921 -58.5077 14.2952 0.2447 -40.5954 -0.517 5.36304 7.3777 -6.51258 -0.2447 -42.048 -2.0576 -12.0686 -13.0499 6.12644 0.3734 -10.4922 12.6407 5.803e-006 5.41247 4.99048e-006 
-4.02354 88.061 93.1236 0.00127349 19.8161 -6.04478 8.88178e-016 9.9235 -1.2273 -6.41385 9.34332 9.05817 -0.0001 11.6454 -1.4223 -4.11773 6.60069 5.01106 0.0001 13.3602 -1.6265 -4.22369 6.59885 4.90036 0 15.0325 0.7929 0.995559 -7.86286 -1.61292 0 10.3218 3.1424 6.70086 -12.2439 -6.97556 0.0002 18.4747 6.6364 1.98785e-016 0 -7.95139e-016 2.9479 7.6817 9.1207 1.98785e-016 0 -7.95139e-016 -2.9445 7.6817 9.1205 1.98785e-016 0 -7.95139e-016 6.1058 9.1104 0.7056 16.7084 -0.525158 -4.74493 12.655 -0.2659 -2.6009 -61.2064 0.661006 31.5056 27.4047 1.42109e-014 0 -2.62075e-005 1.16558e-005 -71.4205 27.6145 1.42109e-014 7.10543e-015 28.8473 3.2486 -13.8585 12.7755 -2.84217e-014 1.42109e-014 -0.0416077 0.0742377 -1.31039 3.614 0 1.42109e-014 -19.0003 -0.319826 1.91097 3.4598 0 7.10543e-015 -20.2593 -0.363172 2.03249 3.7888 -2.167 3.0031 -4.07183 -5.95025 2.66566 3.6754 -2.122 2.122 1.96819 7.82283 20.5869 3.3944 -1.9597 1.9598 17.0246 1.7621 21.0561 12.2666 -0.2317 2.8221 -3.72548 15.0413 -9.03771 3.892 0 -7.10543e-015 -19.8777 -0.349738 1.99575 3.4152 0 7.10543e-015 -19.1472 -0.324743 1.92522 12.147 0.0099 -2.2166 -13.2078 -0.599395 9.82167 3.6012 -1.42109e-014 7.10543e-015 -19.078 -0.322425 1.91851 3.3073 1.42109e-014 0 -22.1481 -0.433178 2.21297 10.9082 -0.2264 -4.7258 -35.5824 -7.68334 21.7526 4.1367 1.42109e-014 7.10543e-015 -22.1495 -0.433228 2.21312 2.5948 1.42109e-014 7.10543e-015 -24.4568 -0.526796 2.43033 -6.1057 9.1105 0.7056 -22.3882 -1.52231 7.23047 -12.655 -0.266 -2.6009 39.9767 -26.2313 21.6253 -27.4047 0 -1.42109e-014 4.13714e-006 -3.52992e-006 68.2021 -27.6145 0 0 -10.8027 3.48169 10.541 -12.7755 0 0 28.1055 -1.5852 -4.23629 -3.614 2.84217e-014 0 44.9008 -1.36154 -3.29437 -3.4598 2.84217e-014 -1.42109e-014 5.29502 -0.0198982 -0.430449 -3.7888 -2.167 3.0031 -1.85744 -4.75554 7.86119 -3.6754 -2.122 2.122 -2.91234 10.4887 -33.1802 -3.3944 -1.9597 1.9598 -16.7851 11.2706 -39.0113 -12.2666 -0.2317 2.8221 37.1465 0.97164 0.0638597 -3.892 0 0 47.0456 -1.48725 -3.41592 -3.4152 0 -7.10543e-015 7.33325 -0.0381523 -0.595384 -12.147 0.0099 -2.2166 29.8052 -1.70712 -7.05746 -3.6012 0 0 42.8975 -1.24831 -3.17668 -3.3073 0 7.10543e-015 3.50033 -0.00869223 -0.28478 -10.9082 -0.2264 -4.7258 33.1761 -7.41025 -13.4871 -4.1367 2.84217e-014 0 41.074 -1.14889 -3.06619 -2.5948 -2.84217e-014 0 39.7388 -1.07835 -2.98327 -9.1245 -6.6564 -0.0554 -11.251 1.3287 -13.1476 -0.2447 -40.5954 -0.5145 0.67539 22.6275 -11.6517 0.2447 -42.0479 -2.0602 19.4084 -5.66004 -3.15478 -0.3734 -10.4922 12.6407 4.81165 -27.9505 2.15267 9.1245 -6.6564 -0.0554 4.53653 -60.6073 17.098 0.2447 -40.5954 -0.517 5.37258 8.17287 -6.77599 -0.2447 -42.048 -2.0576 -11.7846 -13.6823 7.90237 0.3734 -10.4922 12.6407 -3.12672e-006 4.814 -1.91507e-006 
-4.1416 86.7192 97.2943 0.401386 20.5063 -7.83809 8.88178e-016 9.9235 -1.2273 -7.18008 9.57191 9.61154 -0.0001 11.6454 -1.4223 -4.37673 6.63517 5.22515 0.0001 13.3602 -1.6265 -4.47087 6.63831 5.1391 0 15.0325 0.7929 0.886763 -8.31805 -1.57881 0 10.3218 3.1424 7.17684 -14.3416 -6.38459 0.0002 18.4747 6.6364 -1.98785e-016 0 -7.95139e-016 2.9479 7.6817 9.1207 -1.98785e-016 0 -7.95139e-016 -2.9445 7.6817 9.1205 -1.98785e-016 0 -7.95139e-016 6.1058 9.1104 0.7056 14.5507 -0.300849 -3.85705 12.655 -0.2659 -2.6009 -61.6758 -1.69193 30.1098 27.4047 0 0 1.69698e-005 9.04413e-006 -73.4685 27.6145 0 -1.42109e-014 30.2263 -2.51593 -21.0552 12.7755 0 1.42109e-014 -1.14156 0.0277072 -1.19521 3.614 -1.42109e-014 -1.42109e-014 -19.0822 -0.322554 1.91891 3.4598 0 0 -19.374 -0.332408 1.94713 3.7888 -2.167 3.0031 -4.07183 -5.95025 2.66566 3.6754 -2.122 2.122 1.96819 7.82283 20.5869 3.3944 -1.9597 1.9598 17.0246 1.7621 21.0561 12.2666 -0.2317 2.8221 -5.65815 14.9461 -8.75168 3.892 0 -2.13163e-014 -21.4898 -0.408109 2.15034 3.4152 2.84217e-014 0 -19.2287 -0.327484 1.9331 12.147 0.0099 -2.2166 -13.2627 -0.60293 9.82415 3.6012 1.42109e-014 1.42109e-014 -19.1596 -0.325168 1.9264 3.3073 -1.42109e-014 1.42109e-014 -20.6816 -0.378297 2.07305 10.9082 -0.2264 -4.7258 -35.0134 -7.48244 21.7911 4.1367 0 -7.10543e-015 -20.6821 -0.378328 2.07309 2.5948 -1.42109e-014 7.10543e-015 -22.6145 -0.451383 2.2572 -6.1057 9.1105 0.7056 -20.683 -1.57447 7.22294 -12.655 -0.266 -2.6009 42.7147 -24.9989 23.9263 -27.4047 0 0 -1.62186e-006 2.85386e-006 71.3895 -27.6145 0 3.55271e-015 -8.56785 1.40232 12.6824 -12.7755 0 7.10543e-015 29.6042 -1.69724 -4.31571 -3.614 -2.84217e-014 0 47.7689 -1.53067 -3.45586 -3.4598 0 -7.10543e-015 7.89951 -0.0442712 -0.641082 -3.7888 -2.167 3.0031 -1.18697 -3.91841 7.90524 -3.6754 -2.122 2.122 -2.91234 10.4887 -33.1802 -3.3944 -1.9597 1.9598 -16.7851 11.2706 -39.0113 -12.2666 -0.2317 2.8221 38.6911 0.971299 -0.0881047 -3.892 0 -7.10543e-015 50.0742 -1.67234 -3.57939 -3.4152 0 -7.10543e-015 10.2052 -0.0737956 -0.826453 -12.147 0.0099 -2.2166 31.2273 -1.8157 -7.09326 -3.6012 0 0 45.4998 -1.3962 -3.32879 -3.3073 0 0 5.68659 -0.02295 -0.462188 -10.9082 -0.2264 -4.7258 34.4418 -7.71047 -13.4256 -4.1367 0 3.55271e-015 43.258 -1.26839 -3.19814 -2.5948 0 0 41.2921 -1.1606 -3.07958 -9.1245 -6.6564 -0.0554 -12.3419 2.05772 -13.1325 -0.2447 -40.5954 -0.5145 0.661448 23.4594 -12.3587 0.2447 -42.0479 -2.0602 18.6651 -2.63536 -2.73603 -0.3734 -10.4922 12.6407 3.04041 -32.2748 1.58454 9.1245 -6.6564 -0.0554 10.5461 -65.567 22.3889 0.2447 -40.5954 -0.517 5.5335 16.9817 -9.06316 -0.2447 -42.048 -2.0576 -5.44984 -15.9148 11.9398 0.3734 -10.4922 12.6407 -2.33764e-006 3.78944 -7.74729e-006 
